<svg xmlns="http://www.w3.org/2000/svg" width="40.647" height="44.824" viewBox="0 0 40.647 44.824">
  <path id="Icon_simple-email" data-name="Icon simple-email" d="M42.289,20.688a23.116,23.116,0,0,1-.745,5.014,14.509,14.509,0,0,1-1.949,4.4,10.287,10.287,0,0,1-3.305,3.129,9.328,9.328,0,0,1-4.826,1.19,7,7,0,0,1-3.49-.854,5.977,5.977,0,0,1-2.358-2.417,7.475,7.475,0,0,1-6.325,3.176A6.431,6.431,0,0,1,13.77,31.36,9.719,9.719,0,0,1,12.4,27.92a14.834,14.834,0,0,1-.179-4.487,20.844,20.844,0,0,1,1.367-5.5,14.937,14.937,0,0,1,2.526-4.21,10.688,10.688,0,0,1,3.473-2.683,9.691,9.691,0,0,1,4.224-.938,13.134,13.134,0,0,1,2.526.216,10.341,10.341,0,0,1,1.961.588,10.6,10.6,0,0,1,1.625.857c.5.319.994.65,1.49.986L30.183,26.87a4.692,4.692,0,0,0,.036,1.653,2.312,2.312,0,0,0,.5,1.02,1.815,1.815,0,0,0,.818.532,3.036,3.036,0,0,0,2.874-.566,6.125,6.125,0,0,0,1.541-1.961A12.628,12.628,0,0,0,36.992,24.6a20.217,20.217,0,0,0,.454-3.669,23.449,23.449,0,0,0-.577-6.857A13.629,13.629,0,0,0,34.332,8.77a11.784,11.784,0,0,0-4.549-3.417A16.51,16.51,0,0,0,23.156,4.14,14.633,14.633,0,0,0,16.6,5.568a15.038,15.038,0,0,0-4.98,3.961,19.007,19.007,0,0,0-3.26,5.958,26.848,26.848,0,0,0-1.372,7.423,24.682,24.682,0,0,0,.7,7.574,13.679,13.679,0,0,0,2.767,5.428,11.548,11.548,0,0,0,4.689,3.26,17.986,17.986,0,0,0,6.47,1.081,22.161,22.161,0,0,0,4.246-.457c.7-.14,1.364-.308,2-.493a15.031,15.031,0,0,0,1.72-.616l.888,3.994a9.857,9.857,0,0,1-1.924.952,18.523,18.523,0,0,1-2.274.658,22.193,22.193,0,0,1-4.75.532,24.912,24.912,0,0,1-8.661-1.395,15.94,15.94,0,0,1-6.313-4.151,17.433,17.433,0,0,1-3.79-6.854,29.236,29.236,0,0,1-1.059-9.515,29.018,29.018,0,0,1,1.821-9.131A22.6,22.6,0,0,1,7.9,6.523a19.988,19.988,0,0,1,6.692-4.787A20.95,20.95,0,0,1,23.259,0a21.873,21.873,0,0,1,8.4,1.5,16.333,16.333,0,0,1,6.061,4.229,17.357,17.357,0,0,1,3.6,6.535A24.986,24.986,0,0,1,42.289,20.688ZM18.234,23.433a9.528,9.528,0,0,0,.493,4.725,2.533,2.533,0,0,0,2.437,1.6A2.692,2.692,0,0,0,22,29.6a2.977,2.977,0,0,0,.961-.577,5.127,5.127,0,0,0,.975-1.176,9.028,9.028,0,0,0,.9-1.989l.958-10.969a5.723,5.723,0,0,0-1.49-.2,5.152,5.152,0,0,0-2.479.569,4.907,4.907,0,0,0-1.756,1.669A9.8,9.8,0,0,0,18.9,19.677a23.285,23.285,0,0,0-.661,3.753Z" transform="translate(-1.67)" fill="#2c2c2c"/>
</svg>
