<svg xmlns="http://www.w3.org/2000/svg" width="44.829" height="44.828" viewBox="0 0 44.829 44.828">
  <path id="Icon_awesome-linkedin-in" data-name="Icon awesome-linkedin-in" d="M10.035,44.829H.74V14.9h9.294ZM5.383,10.817a5.408,5.408,0,1,1,5.383-5.434A5.428,5.428,0,0,1,5.383,10.817ZM44.819,44.829H35.545V30.259c0-3.472-.07-7.925-4.832-7.925-4.832,0-5.573,3.772-5.573,7.675v14.82H15.856V14.9H24.77v4.083h.13a9.766,9.766,0,0,1,8.794-4.833c9.406,0,11.135,6.194,11.135,14.239V44.829Z" transform="translate(0 -0.001)" fill="#2c2c2c"/>
</svg>
