<svg xmlns="http://www.w3.org/2000/svg" width="44.824" height="44.824" viewBox="0 0 44.824 44.824">
  <path id="Icon_simple-whatsapp" data-name="Icon simple-whatsapp" d="M32.68,26.861c-.562-.28-3.3-1.619-3.81-1.8s-.883-.28-1.257.28-1.44,1.8-1.763,2.17-.652.392-1.207.14a15.158,15.158,0,0,1-4.488-2.773,16.944,16.944,0,0,1-3.1-3.866c-.325-.56-.035-.868.243-1.149.254-.252.562-.644.842-.977a4.735,4.735,0,0,0,.555-.926,1.027,1.027,0,0,0-.047-.979c-.14-.28-1.255-3.026-1.722-4.12-.448-1.091-.91-.953-1.255-.953-.321-.028-.693-.028-1.066-.028a2.105,2.105,0,0,0-1.489.67,6.235,6.235,0,0,0-1.952,4.622c0,2.717,2,5.351,2.277,5.743.278.364,3.931,5.967,9.525,8.376,1.334.56,2.372.9,3.183,1.175a7.727,7.727,0,0,0,3.511.226c1.072-.17,3.3-1.347,3.765-2.663a4.623,4.623,0,0,0,.336-2.661c-.138-.252-.5-.392-1.065-.644m-10.171,13.9H22.5a18.683,18.683,0,0,1-9.441-2.577l-.672-.4-7,1.821,1.877-6.808-.446-.7A18.524,18.524,0,0,1,35.659,9.107a18.281,18.281,0,0,1,5.433,13.055A18.546,18.546,0,0,1,22.537,40.623M38.325,6.442A22.677,22.677,0,0,0,22.5,0,22.206,22.206,0,0,0,3.168,33.315L0,44.824l11.832-3.085a22.528,22.528,0,0,0,10.664,2.7h.011A22.3,22.3,0,0,0,44.824,22.223,22.028,22.028,0,0,0,38.3,6.514" transform="translate(0 0)" fill="#2c2c2c"/>
</svg>
